{"title":"Churanga (2016) 1080p Webrip x264 DTS 5.1 ESub -DDR","uid":15787952,"size":3057927343,"categoryP":"video","categoryS":"hd___movies","magnet":"?xt=urn:btih:3cbb4b707049803660f3221b6540e4a3cee9e9f6&amp;dn=Churanga+%282016%29+1080p+Webrip+x264+DTS+5.1+ESub+-DDR&amp;tr=udp%3A%2F%2Ftracker.leechers-paradise.org%3A6969&amp;tr=udp%3A%2F%2Fzer0day.ch%3A1337&amp;tr=udp%3A%2F%2Fopen.demonii.com%3A1337&amp;tr=udp%3A%2F%2Ftracker.coppersurfer.tk%3A6969&amp;tr=udp%3A%2F%2Fexodus.desync.com%3A6969","seeders":7,"leechers":6,"uploader":"SaM","files":3,"time":1473348231,"description":"Chauranga\r\n\r\n1080p Web Rip x264\r\n\r\nHindi DTS 5.1 Audio\r\n\r\n\r\n\r\nEnglish Subtitle\r\n\r\n \nhttp://extraimago.com/image/wmQz \nhttp://extraimago.com/image/wmQU \nhttp://extraimago.com/image/wmQM \nhttp://extraimago.com/image/wmQ9 \nhttp://extraimago.com/image/wmQ3 \nhttp://extraimago.com/image/wmQh \nhttp://extraimago.com/image/wmQd \nhttp://extraimago.com/image/wmQI\r\n\r\nSpecs:\r\nSource: Netflix Rip@ DDR\r\n\r\nFormat : Matroska\r\nFormat version : Version 4 / Version 2\r\nFile size : 2.81 GiB\r\nDuration : 1 h 26 min\r\nOverall bit rate : 4 681 kb/s\r\nEncoded date : UTC 2016-09-08 01:46:01\r\nWriting application : mkvmerge v9.2.0 ('Photograph') 64bit\r\nWriting library : libebml v1.3.3 + libmatroska v1.4.4\r\n\r\nVideo\r\nID : 1\r\nFormat : AVC\r\nFormat/Info : Advanced Video Codec\r\nFormat profile :   \r\nFormat settings, CABAC : Yes\r\nFormat settings, ReFrames : 5 frames\r\nCodec ID : V_MPEG4/ISO/AVC\r\nDuration : 1 h 26 min\r\nBit rate : 3 169 kb/s\r\nWidth : 1 920 pixels\r\nHeight : 816 pixels\r\nDisplay aspect ratio : 2.35:1\r\nFrame rate mode : Constant\r\nFrame rate : 24.000 FPS\r\nColor space : YUV\r\nChroma subsampling : 4:2:0\r\nBit depth : 8 bits\r\nScan type : Progressive\r\nBits/(Pixel*Frame) : 0.084\r\nStream size : 1.90 GiB (68%)\r\nLanguage : English\r\nDefault : Yes\r\nForced : No\r\nColor range : Limited\r\nColor primaries : BT.709\r\nTransfer characteristics : BT.709\r\nMatrix coefficients : BT.709\r\n\r\nAudio\r\nID : 2\r\nFormat : DTS\r\nFormat/Info : Digital Theater Systems\r\nMode : 16\r\nFormat settings, Endianness : Big\r\nCodec ID : A_DTS\r\nDuration : 1 h 26 min\r\nBit rate mode : Constant\r\nBit rate : 1 510 kb/s\r\nChannel(s) : 6 channels\r\nChannel positions : Front: L C R, Side: L R, LFE\r\nSampling rate : 48.0 kHz\r\nFrame rate : 93.750 FPS (512 spf)\r\nBit depth : 16 bits\r\nCompression mode : Lossy\r\nDelay relative to video : 9 ms\r\nStream size : 929 MiB (32%)\r\nLanguage : Hindi\r\nDefault : Yes\r\nForced : No\r\n\r\nText\r\nID : 3\r\nFormat : UTF-8\r\nCodec ID : S_TEXT/UTF8\r\nCodec ID/Info : UTF-8 Plain Text\r\nDuration : 1 h 18 min\r\nBit rate : 21 b/s\r\nCount of elements : 517\r\nStream size : 12.3 KiB (0%)\r\nLanguage : English\r\nDefault : Yes\r\nForced : No\r\n\r\nSAMPLE Included","torrent":{"xt":"urn:btih:3cbb4b707049803660f3221b6540e4a3cee9e9f6","amp;dn":"Churanga+%282016%29+1080p+Webrip+x264+DTS+5.1+ESub+-DDR","amp;tr":["udp%3A%2F%2Ftracker.leechers-paradise.org%3A6969","udp%3A%2F%2Fzer0day.ch%3A1337","udp%3A%2F%2Fopen.demonii.com%3A1337","udp%3A%2F%2Ftracker.coppersurfer.tk%3A6969","udp%3A%2F%2Fexodus.desync.com%3A6969"],"infoHash":"3cbb4b707049803660f3221b6540e4a3cee9e9f6","infoHashBuffer":{"type":"Buffer","data":[60,187,75,112,112,73,128,54,96,243,34,27,101,64,228,163,206,233,233,246]},"announce":[],"urlList":[]}}